<?xml version="1.0" encoding="UTF-8"?>
<svg id="Layer_1" data-name="Layer 1" xmlns="http://www.w3.org/2000/svg" viewBox="0 0 301 301">
  <defs>
    <style>
      .cls-1 {
        fill: #fff;
      }

      .cls-2 {
        font-family: MyriadPro-Regular, 'Myriad Pro';
        font-size: 12px;
      }

      .cls-3 {
        stroke: #231f20;
        stroke-miterlimit: 10;
      }

      .cls-4 {
        fill: #111;
      }
    </style>
  </defs>
  <text class="cls-2" transform="translate(133.52 121.4)"><tspan x="0" y="0">S</tspan></text>
  <g>
    <rect class="cls-3" x=".5" y=".5" width="300" height="300" rx="27.45" ry="27.45"/>
    <path class="cls-4" d="m8.54,292.46c4.97,4.97,11.83,8.04,19.41,8.04h245.1c15.16,0,27.45-12.29,27.45-27.45V27.95c0-7.58-3.07-14.44-8.04-19.41L8.54,292.46Z"/>
  </g>
  <path class="cls-1" d="m94.98,193.22l.95-.95h5.83l.95.95c.4,10.16.93,16.36,1.61,18.62.67,2.26,2.82,4.64,6.43,7.14,3.61,2.5,8.41,4.54,14.4,6.13,5.99,1.59,12.04,2.38,18.15,2.38,8.41,0,15.97-1.55,22.67-4.64,6.7-3.09,11.92-7.64,15.65-13.63,3.73-5.99,5.59-12.71,5.59-20.17,0-5.24-.89-9.8-2.68-13.69-1.79-3.89-4.28-7-7.5-9.34-3.21-2.34-6.88-4.09-11.01-5.24-4.13-1.15-10.27-2.4-18.45-3.75-7.93-1.27-14.14-2.42-18.62-3.45-4.48-1.03-8.95-2.62-13.39-4.76-4.44-2.14-8.15-4.86-11.13-8.15-2.97-3.29-5.36-7.34-7.14-12.14-1.78-4.8-2.68-9.94-2.68-15.41,0-14.83,5.16-26.99,15.47-36.48,10.31-9.48,24.16-14.22,41.53-14.22,6.9,0,14.42.85,22.55,2.56,8.13,1.71,15.53,4.22,22.19,7.56l.83,1.43c-1.75,7.3-2.82,17.69-3.21,31.18l-1.07.95h-6.19l-.95-.83c-.16-9.52-.4-15.51-.71-17.97-.32-2.46-3.93-5.51-10.83-9.16-6.9-3.65-14.4-5.47-22.49-5.47-6.74,0-13.05,1.35-18.92,4.05-5.87,2.7-10.32,6.94-13.33,12.73-3.02,5.79-4.52,11.7-4.52,17.73,0,4.68.91,8.83,2.74,12.44,1.82,3.61,4.18,6.47,7.08,8.57,2.9,2.1,6.27,3.67,10.12,4.7,3.85,1.03,10.89,2.3,21.12,3.81,14.04,1.98,24.26,4.38,30.64,7.2,6.39,2.82,11.5,7.28,15.35,13.39,3.85,6.11,5.77,13.49,5.77,22.14,0,16.9-6.89,30.98-20.65,42.25-13.77,11.27-30.45,16.9-50.04,16.9-16.42,0-30.82-2.94-43.2-8.81l-.71-1.55c.79-5,1.39-16.66,1.78-34.99Z"/>
</svg>