<svg width="60" height="48" viewBox="0 0 60 48" fill="none" xmlns="http://www.w3.org/2000/svg">
<path fill-rule="evenodd" clip-rule="evenodd" d="M12.4622 0.0057373C9.03867 0.0057373 6.50543 3.01426 6.61887 6.27692C6.72773 9.41145 6.58629 13.4711 5.5684 16.7818C4.54687 20.1017 2.82047 22.2056 0 22.4756L0 25.5244C2.82047 25.795 4.54687 27.8978 5.56828 31.2182C6.58629 34.5289 6.72762 38.5885 6.61875 41.7231C6.50531 44.9853 9.03855 47.9943 12.4627 47.9943L47.5424 47.9943C50.9659 47.9943 53.4987 44.9857 53.3852 41.7231C53.2764 38.5885 53.4178 34.5289 54.4357 31.2182C55.4572 27.8978 57.1794 25.7942 60 25.5244V22.4756C57.1795 22.205 55.4573 20.1022 54.4357 16.7818C53.4177 13.4716 53.2764 9.41145 53.3852 6.27692C53.4987 3.01473 50.9659 0.0057373 47.5424 0.0057373L12.4617 0.0057373L12.4622 0.0057373ZM40.678 29.5458C40.678 34.0384 37.3404 36.763 31.8015 36.763L22.3729 36.763C22.1031 36.763 21.8445 36.6554 21.6538 36.4639C21.463 36.2724 21.3559 36.0127 21.3559 35.7419L21.3559 12.2582C21.3559 11.9874 21.463 11.7277 21.6538 11.5362C21.8445 11.3447 22.1031 11.2371 22.3729 11.2371H31.7479C36.3663 11.2371 39.3974 13.7489 39.3974 17.6053C39.3974 20.312 37.3583 22.7352 34.7606 23.1597V23.3009C38.2969 23.6903 40.678 26.1494 40.678 29.5458ZM30.7734 14.4738H25.3973L25.3973 22.0981H29.9254C33.4257 22.0981 35.3558 20.6829 35.3558 18.1533C35.3555 15.7828 33.6961 14.4738 30.7734 14.4738ZM25.3973 25.1232V33.5252L30.9712 33.5252C34.6158 33.5252 36.5462 32.057 36.5462 29.2977C36.5462 26.5384 34.5616 25.1227 30.7369 25.1227H25.3973V25.1232Z" fill="white"/>
</svg>
