<svg width="63" height="86" viewBox="0 0 63 86" fill="none" xmlns="http://www.w3.org/2000/svg">
<g clip-path="url(#clip0_298_18)">
<path d="M0 69.3333L0.522457 68.6053L25.2313 21.9359L25.2834 21.4418L14.3916 1.07607C13.4786 -0.629872 10.9093 -0.198487 10.6101 1.71126L0 69.3333Z" fill="white"/>
<path d="M0.30835 68.7783L0.70333 68.0113L25.1535 21.8309L14.2884 1.38235C13.3855 -0.305712 11.0924 0.124692 10.7961 2.01436L0.30835 68.7783Z" fill="white"/>
<path d="M0.30835 68.7783L0.70333 68.0113L25.1535 21.8309L14.2884 1.38235C13.3855 -0.305712 11.0924 0.124692 10.7961 2.01436L0.30835 68.7783Z" fill="white"/>
<path d="M33.2238 36.8465L41.3338 28.5789L33.2213 13.1632C32.4513 11.704 30.3012 11.6996 29.5393 13.1632L25.2048 21.3909V22.0915L33.2236 36.8465H33.2238Z" fill="white"/>
<path d="M33.0792 36.5021L40.9638 28.4643L33.0792 13.5196C32.3306 12.101 30.5117 11.9523 29.771 13.3751L25.4139 21.7306L25.2834 22.1579L33.0792 36.5021V36.5021Z" fill="white"/>
<path d="M33.0792 36.5021L40.9638 28.4643L33.0792 13.5196C32.3306 12.101 30.5117 11.9523 29.771 13.3751L25.4139 21.7306L25.2834 22.1579L33.0792 36.5021V36.5021Z" fill="white"/>
<path d="M0 69.3334L0.236742 69.0962L1.09709 68.7484L32.7145 37.3928L33.1151 36.3073L25.2278 21.3463L0 69.3334Z" fill="white"/>
<path d="M34.2368 85.1465L62.8514 69.2612L54.6801 19.167C54.4244 17.5997 52.4928 16.9802 51.3657 18.1038L0 69.3333L28.4504 85.1453C29.3347 85.6368 30.3306 85.8949 31.3434 85.8951C32.3563 85.8953 33.3523 85.6376 34.2368 85.1465Z" fill="white"/>
<path d="M62.2775 69.3586L54.1682 19.6448C53.9147 18.0893 52.3082 17.4458 51.1897 18.5611L0 69.4664L28.1381 85.1217C29.0157 85.6094 30.004 85.8656 31.0091 85.8659C32.0142 85.8661 33.0026 85.6105 33.8805 85.1232L62.2777 69.3584L62.2775 69.3586Z" fill="white"/>
<path d="M34.2366 84.6785C33.3521 85.1695 32.3561 85.4272 31.3433 85.427C30.3306 85.4268 29.3347 85.1687 28.4504 84.6773L0.229111 69.0926L0.000244141 69.3334L28.4504 85.1454C29.3347 85.6369 30.3306 85.895 31.3434 85.8952C32.3563 85.8954 33.3523 85.6377 34.2368 85.1466L62.8514 69.2613L62.7812 68.8322L34.2368 84.6787L34.2366 84.6785Z" fill="white"/>
</g>
<defs>
<clipPath id="clip0_298_18">
<rect width="63" height="86" fill="white"/>
</clipPath>
</defs>
</svg>
