<svg width="44" height="44" viewBox="0 0 44 44" fill="none" xmlns="http://www.w3.org/2000/svg">
<g clip-path="url(#clip0_34_60)">
<path d="M35.6461 15.38C35.1859 15.2266 34.7256 15.0817 34.2653 14.9453C34.342 14.6299 34.4102 14.3145 34.4784 13.9992C35.5268 8.91902 34.8364 4.83617 32.5094 3.48942C30.2677 2.20234 26.611 3.54057 22.9117 6.76253C22.5452 7.0779 22.1872 7.41033 21.8463 7.74275C21.6161 7.52114 21.3775 7.29952 21.1388 7.08643C17.2605 3.64285 13.3737 2.19382 11.0467 3.54909C8.81351 4.84469 8.14866 8.68889 9.08627 13.4963C9.18003 13.9736 9.28232 14.4424 9.40165 14.9197C8.85613 15.0731 8.31914 15.2436 7.81624 15.4226C3.26458 16.9995 0 19.4884 0 22.0626C0 24.722 3.47767 27.3899 8.20833 29.0094C8.5919 29.1373 8.97546 29.2651 9.36755 29.3759C9.2397 29.8873 9.12889 30.3902 9.02661 30.9102C8.13162 35.6408 8.83056 39.3913 11.0638 40.6784C13.3652 42.0081 17.2349 40.6443 21.0024 37.3456C21.3007 37.0814 21.5991 36.8086 21.8974 36.5188C22.2724 36.8853 22.6645 37.2348 23.0566 37.5757C26.7048 40.7125 30.3103 41.9825 32.535 40.6954C34.8364 39.3657 35.5865 35.334 34.6148 30.4243C34.5381 30.0493 34.4528 29.6657 34.3591 29.2736C34.6318 29.1969 34.8961 29.1117 35.1603 29.0264C40.0785 27.3984 43.6414 24.7646 43.6414 22.0626C43.6414 19.4799 40.283 16.9739 35.6461 15.38ZM24.1136 8.14337C27.2844 5.38169 30.2421 4.29918 31.5889 5.07483C33.0294 5.90163 33.5834 9.24293 32.6799 13.6326C32.6202 13.9224 32.5606 14.2037 32.4838 14.485C30.5916 14.0588 28.6737 13.752 26.7474 13.5815C25.6393 11.9961 24.4289 10.4789 23.1163 9.0554C23.4487 8.74003 23.7726 8.4417 24.1136 8.14337ZM14.2516 26.4864C14.6863 27.2279 15.1296 27.9695 15.5984 28.694C14.2687 28.5491 12.9475 28.336 11.6434 28.0547C12.0184 26.8273 12.4872 25.5573 13.0327 24.2617C13.4248 25.0118 13.8255 25.7533 14.2516 26.4864ZM11.669 16.2324C12.8964 15.9596 14.2005 15.738 15.5558 15.5675C15.104 16.275 14.6608 16.9995 14.2431 17.7325C13.8255 18.4571 13.4163 19.1986 13.0327 19.9487C12.4958 18.6787 12.044 17.4342 11.669 16.2324ZM14.0045 22.1052C14.567 20.9289 15.1807 19.7782 15.8285 18.6446C16.4763 17.5109 17.1753 16.4114 17.9083 15.3289C19.1869 15.2351 20.491 15.1839 21.8207 15.1839C23.1504 15.1839 24.463 15.2351 25.7331 15.3289C26.4576 16.4028 27.148 17.5024 27.8043 18.6275C28.4607 19.7527 29.0744 20.9034 29.654 22.0711C29.0829 23.2474 28.4692 24.4066 27.8129 25.5488C27.1651 26.6824 26.4746 27.782 25.7501 28.873C24.4801 28.9668 23.1589 29.0094 21.8207 29.0094C20.4825 29.0094 19.1869 28.9668 17.9339 28.8901C17.1923 27.8076 16.4934 26.6995 15.837 25.5658C15.1807 24.4322 14.5755 23.2815 14.0045 22.1052ZM29.3983 26.4693C29.833 25.7192 30.2421 24.9606 30.6427 24.1935C31.1882 25.4294 31.6656 26.6824 32.0832 27.9695C30.7621 28.2678 29.4238 28.498 28.0771 28.6514C28.5374 27.9354 28.9721 27.2024 29.3983 26.4693ZM30.6257 19.9487C30.2251 19.1986 29.8159 18.4485 29.3897 17.7155C28.9721 16.991 28.5374 16.275 28.0856 15.5675C29.4579 15.738 30.7706 15.9681 31.998 16.2494C31.6059 17.5109 31.1456 18.7383 30.6257 19.9487ZM21.8377 10.3595C22.7327 11.3312 23.5766 12.3541 24.3608 13.411C22.6731 13.3343 20.9768 13.3343 19.2892 13.411C20.1245 12.3115 20.9854 11.2886 21.8377 10.3595ZM11.9502 5.1345C13.3822 4.29918 16.5616 5.4925 19.9114 8.45875C20.1245 8.64627 20.3376 8.85084 20.5592 9.0554C19.238 10.4789 18.0191 11.9961 16.9025 13.5815C14.9762 13.752 13.0668 14.0503 11.1746 14.468C11.0638 14.0332 10.97 13.59 10.8763 13.1468C10.075 9.02131 10.6035 5.91016 11.9502 5.1345ZM9.86193 27.603C9.50393 27.5007 9.15446 27.3899 8.80499 27.2706C6.98944 26.6995 4.9267 25.796 3.43505 24.6112C2.57416 24.0145 1.99455 23.094 1.8326 22.0626C1.8326 20.5027 4.52609 18.5082 8.4129 17.1529C8.89875 16.9825 9.39313 16.829 9.8875 16.6841C10.4671 18.5338 11.1661 20.3493 11.9758 22.1052C11.1575 23.8867 10.4501 25.7278 9.86193 27.603ZM19.8006 35.9562C18.3942 37.2433 16.7661 38.2661 14.9932 38.9651C14.0471 39.4168 12.956 39.4595 11.9843 39.0759C10.6291 38.2917 10.0665 35.2829 10.8336 31.2341C10.9274 30.7568 11.0297 30.2794 11.149 29.8106C13.0583 30.2198 14.9847 30.5011 16.9366 30.646C18.0617 32.2399 19.2977 33.7656 20.6188 35.1976C20.3461 35.4618 20.0733 35.7176 19.8006 35.9562ZM21.8889 33.885C21.0195 32.9474 20.15 31.9075 19.3062 30.7909C20.1245 30.825 20.9683 30.842 21.8207 30.842C22.6986 30.842 23.5595 30.825 24.4119 30.7823C23.6277 31.8648 22.7839 32.8962 21.8889 33.885ZM33.0294 36.4421C32.9527 37.482 32.4412 38.4537 31.623 39.11C30.2677 39.8942 27.3781 38.8713 24.2585 36.1949C23.9005 35.888 23.5425 35.5556 23.176 35.2147C24.4801 33.7742 25.6819 32.2484 26.773 30.646C28.7249 30.484 30.6683 30.1857 32.5861 29.751C32.6714 30.1004 32.7481 30.4499 32.8163 30.7909C33.2339 32.632 33.3021 34.5498 33.0294 36.4421ZM34.5807 27.2791C34.342 27.3558 34.1034 27.4325 33.8562 27.5007C33.2595 25.6425 32.5265 23.827 31.6826 22.0626C32.5009 20.3237 33.1913 18.5338 33.7709 16.7012C34.2142 16.829 34.6403 16.9654 35.0495 17.1018C39.0215 18.4656 41.8088 20.4942 41.8088 22.0455C41.8088 23.7162 38.834 25.8727 34.5807 27.2791ZM21.8207 26.0005C23.9772 26.0005 25.7245 24.2532 25.7245 22.0967C25.7245 19.9402 23.9772 18.1928 21.8207 18.1928C19.6642 18.1928 17.9168 19.9402 17.9168 22.0967C17.9168 24.2532 19.6642 26.0005 21.8207 26.0005Z" fill="white"/>
</g>
<defs>
<clipPath id="clip0_34_60">
<rect width="43.6414" height="43.6414" fill="white" transform="translate(0 0.275879)"/>
</clipPath>
</defs>
</svg>
