<svg width="2490" height="2492" viewBox="0 0 2490 2492" fill="none" xmlns="http://www.w3.org/2000/svg">
<path fill-rule="evenodd" clip-rule="evenodd" d="M1656.43 1694.31V886.26C1656.43 872.442 1650.94 859.191 1641.16 849.421C1631.39 839.651 1618.14 834.162 1604.32 834.162H797.218V0.0754099H2437.48C2444.33 0.0740619 2451.11 1.42088 2457.43 4.03895C2463.75 6.65702 2469.5 10.495 2474.34 15.3339C2479.18 20.1727 2483.02 25.9175 2485.64 32.2402C2488.25 38.5629 2489.6 45.3396 2489.6 52.1834V1694.31H1656.43Z" fill="white"/>
<path opacity="0.405" fill-rule="evenodd" clip-rule="evenodd" d="M797.218 0.0754089V834.162H26.898C21.7463 834.161 16.7105 832.632 12.4271 829.77C8.14359 826.908 4.8046 822.84 2.83197 818.081C0.85935 813.322 0.34161 808.085 1.34417 803.032C2.34673 797.979 4.82461 793.336 8.46471 789.69L797.218 0.0754089ZM1656.43 2465.44V1694.31H2489.6L1700.91 2483.85C1697.27 2487.49 1692.63 2489.97 1687.57 2490.98C1682.52 2491.98 1677.28 2491.47 1672.52 2489.5C1667.76 2487.53 1663.69 2484.19 1660.83 2479.91C1657.96 2475.63 1656.43 2470.59 1656.43 2465.44ZM797.218 834.162H1630.37C1637.28 834.162 1643.91 836.906 1648.79 841.791C1653.68 846.676 1656.43 853.302 1656.43 860.211V1694.31H849.326C842.483 1694.31 835.707 1692.96 829.385 1690.34C823.063 1687.72 817.318 1683.88 812.48 1679.05C807.641 1674.21 803.803 1668.46 801.184 1662.14C798.565 1655.82 797.218 1649.04 797.218 1642.2V834.162Z" fill="white"/>
</svg>
