<svg width="47" height="28" viewBox="0 0 47 28" fill="none" xmlns="http://www.w3.org/2000/svg">
<g clip-path="url(#clip0_34_58)">
<path fill-rule="evenodd" clip-rule="evenodd" d="M23.5414 0.0690918C17.4123 0.0690918 13.5807 3.09974 12.0466 9.16105C14.3465 6.13163 17.0281 4.9953 20.0914 5.75203C21.8426 6.18374 23.0849 7.43793 24.4768 8.8261C26.7219 11.0889 29.3412 13.7052 35.0362 13.7052C41.1653 13.7052 44.9969 10.6745 46.531 4.61321C44.2336 7.6451 41.5519 8.78144 38.4862 8.02223C36.735 7.59052 35.4927 6.33632 34.1008 4.94815C31.8482 2.67424 29.2402 0.0690918 23.5414 0.0690918ZM12.0466 13.7052C5.91748 13.7052 2.08587 16.7358 0.551727 22.7971C2.85419 19.7677 5.53581 18.6314 8.59661 19.3881C10.3478 19.8198 11.5901 21.074 12.982 22.4659C15.2271 24.7249 17.8464 27.345 23.5414 27.345C29.6705 27.345 33.5021 24.3143 35.0362 18.253C32.7387 21.2824 30.0571 22.4163 26.9913 21.6546C25.2402 21.2229 23.9979 19.9687 22.6059 18.5805C20.3608 16.3177 17.7416 13.6977 12.0466 13.6977V13.7052Z" fill="white"/>
</g>
<defs>
<clipPath id="clip0_34_58">
<rect width="45.9793" height="27.2759" fill="white" transform="translate(0.551727 0.0690918)"/>
</clipPath>
</defs>
</svg>
